# xmcd CD database file
#
# Track frame offsets:
#	150
#	21635
#	41886
#	57689
#	77037
#	96665
#	117539
#	143462
#	158842
#	181506
#	190366
#
# Disc length: 2949 seconds
#
# Revision: 0
# Processed by: cddbd v1.5.1PL2 Copyright (c) Steve Scherf et al.
# Submitted via: CDex 1.51
#
DISCID=9e0b830b
DTITLE=Bernard Allison - Keepin' The Blues Alive
DYEAR=1997
DGENRE=Blues
TTITLE0=Baby Chile
TTITLE1=Tell Me Why
TTITLE2=Walkin'
TTITLE3=Young Boy's Blues
TTITLE4=In The Open
TTITLE5=You Gave Me The Blues
TTITLE6=Home Goin
TTITLE7=When I'm Lonely
TTITLE8=A Change Must Come
TTITLE9=Rocket 88
TTITLE10=Garbage Man
EXTD=YEAR: 1997
EXTT0=
EXTT1=
EXTT2=
EXTT3=
EXTT4=
EXTT5=
EXTT6=
EXTT7=
EXTT8=
EXTT9=
EXTT10=
PLAYORDER=
